<svg xmlns="http://www.w3.org/2000/svg" xmlns:xlink="http://www.w3.org/1999/xlink" version="1.1" x="0px" y="0px" viewBox="0 -176.25 402.667 503.4375" enable-background="new 0 -176.25 402.667 402.75" xml:space="preserve"><path d="M201.489,141.437c-0.074-0.146-0.191-0.383-0.311-0.607C201.333,141.126,201.43,141.321,201.489,141.437z"/><path d="M201.299,141.065C201.399,141.264,201.381,141.223,201.299,141.065L201.299,141.065z"/><path d="M381.742,183.364c1.412,0.007,2.824,0.011,4.264,0.011c4.553,0,7.451-5.069,5.209-8.995l-10.363-17.998  c1.107-0.004,2.213-0.012,3.332-0.012c4.361,0,7.35-4.746,5.389-8.668L357.306,62.22c-1.008-2.014-3.119-3.332-5.373-3.332  c-41.311,0-80.219,7.69-109.562,21.658c-19.975,9.509-34.113,31.283-41.578,44.31c-7.464-13.027-21.603-34.8-41.575-44.31  c-29.34-13.968-68.246-21.659-109.553-21.659c-2.229,0-4.383,1.307-5.367,3.315l-32.492,85.482  c-1.983,3.921,1.019,8.686,5.382,8.686c1.725,0,3.435,0.006,5.135,0.018l-10.358,17.99c-2.178,3.939,0.605,8.995,5.209,8.995  c1.438,0,2.85-0.004,4.261-0.01l-10.623,20.963c-2.139,4.278,1.517,9.319,6.286,8.642l148.797-13.44  c3.163,14.515,16.438,13.847,35.02,13.847c18.583,0,31.856,0.668,35.02-13.847l148.807,13.44c6.471,1.019,8.25-7.408,7.625-8.642  L381.742,183.364z M33.922,144.546c-0.75-0.158-1.514-0.171-2.253-0.043c-1.599-0.029-3.205-0.055-4.821-0.074L53.35,70.93  c38.169,0.438,73.813,7.646,100.71,20.45c24.904,11.855,39.223,36.948,40.716,52.761l0.038,44.696  C168.352,169.319,108.067,146.131,33.922,144.546z M371.302,144.476c-0.6-0.083-1.213-0.071-1.82,0.03  c-79.842,1.492-138.123,22.198-162.568,44.09l-0.104-44.455c1.494-15.813,15.814-40.906,40.721-52.761  c26.895-12.802,62.537-20.012,100.703-20.451l26.316,73.499C373.462,144.442,372.382,144.459,371.302,144.476z"/><path d="M201.283,141.035c0.037,0.072,0.064,0.129,0.102,0.194C201.324,141.113,201.283,141.035,201.283,141.035z"/><line x1="49.665" y1="58.887" x2="353.833" y2="58.887"/><path d="M163.794-121.791c-32.597,15.389-49.408,50.683-42.783,84.523c4.367-5.834,10.162-10.727,17.208-14.049  c8.973-4.236,18.606-5.282,27.675-3.686c4.533-8.019,11.467-14.791,20.438-19.026c8.966-4.229,18.598-5.281,27.67-3.683  c4.535-8.02,11.479-14.791,20.439-19.021c7.046-3.326,14.503-4.691,21.781-4.357C234.327-127.713,196.399-137.175,163.794-121.791z"/><path d="M195.58-70.252c-2.168,0.596-4.298,1.362-6.366,2.336c-2.062,0.974-4.008,2.135-5.852,3.432l25.316,53.653h14.942  L195.58-70.252z"/><path d="M284.537-51.902c-4.116-2.613-9.585-1.401-12.208,2.725L243.472-3.759L123.5-3.758l-8.452,28.296h18.459l3.169-10.607  l106.678-0.001l6.434,10.607h20.688L258.742,5.194l28.518-44.89C289.879-43.815,288.66-49.279,284.537-51.902z"/><text x="0" y="241.5" fill="#000000" font-size="5px" font-weight="bold" font-family="'Helvetica Neue', Helvetica, Arial-Unicode, Arial, Sans-serif">Created by corpus delicti</text><text x="0" y="246.5" fill="#000000" font-size="5px" font-weight="bold" font-family="'Helvetica Neue', Helvetica, Arial-Unicode, Arial, Sans-serif">from the Noun Project</text></svg>