<svg xmlns="http://www.w3.org/2000/svg" xmlns:xlink="http://www.w3.org/1999/xlink" version="1.1" x="0px" y="0px" viewBox="0 0 100 125" style="enable-background:new 0 0 100 100;" xml:space="preserve"><path d="M36.4,56.8h1c0.8,0,1.5-0.5,1.7-1.2l0.8-2.7l7.3,0.6l-0.8,11.4c0,1,0.9,1.7,2,1.7h1.1c1,0,1.8-0.6,2-1.5l2.9-11.4l3.7,0.1  c0,0,0.1,0,0.1,0c1.6,0.1,6.2,0.3,7.8-1c0.4-0.2,2-1.5,2.1-3.3c0,0,0-0.1,0-0.1c-0.1-1.8-1.7-3-2.1-3.3c-1.6-1.3-6.5-1.1-7.9-1  l-3.7,0.1l-2.9-11.4c-0.1-0.8-1-1.5-2-1.5h-1.1c-1.1,0-2,0.8-2,1.8l0.8,11.3L40,46.1l-0.8-2.7c-0.2-0.7-0.9-1.2-1.7-1.2h-1  c-1,0-1.8,0.8-1.8,1.8V55C34.6,56,35.4,56.8,36.4,56.8z M36.6,44.2h0.7l1,3.3c0.1,0.5,0.6,0.7,1,0.7l9.1-0.7c0.5,0,1-0.5,0.9-1.1  l-0.8-12l1.1,0l3.1,12.1c0.1,0.5,0.5,0.8,1,0.8l4.6-0.2c2.6-0.2,5.9,0,6.6,0.6c0,0,0.1,0.1,0.1,0.1c0,0,1.2,0.8,1.2,1.7  c0,0.8-0.9,1.5-1.2,1.7c0,0-0.1,0.1-0.1,0.1c-0.7,0.6-3.9,0.7-6.6,0.6c-0.1,0-0.1,0-0.2,0l-4.4-0.1c-0.5,0-0.9,0.3-1,0.8l-3.1,12.2  c0,0,0,0,0,0l-1.1,0l0.8-12c0-0.5-0.4-1-0.9-1.1l-9-0.7c-0.5,0-0.9,0.3-1,0.7l-1,3.3h-0.7V44.2z"/><path d="M49.3,25.2c0.1,0,0.3,0,0.4-0.1c0.1-0.1,0.2-0.1,0.3-0.2c0.2-0.2,0.3-0.4,0.3-0.7c0-0.3-0.1-0.5-0.3-0.7  c-0.4-0.4-1-0.4-1.4,0c-0.2,0.2-0.3,0.5-0.3,0.7c0,0.3,0.1,0.5,0.3,0.7C48.8,25.1,49,25.2,49.3,25.2z"/><path d="M69.3,75.5c0.3,0,0.5-0.1,0.7-0.3s0.3-0.4,0.3-0.7c0-0.1,0-0.1,0-0.2c0-0.1,0-0.1-0.1-0.2c0-0.1-0.1-0.1-0.1-0.2  c0-0.1-0.1-0.1-0.1-0.2c-0.1-0.1-0.2-0.2-0.3-0.2c-0.2-0.1-0.5-0.1-0.8,0c-0.1,0-0.2,0.1-0.3,0.2c0,0-0.1,0.1-0.1,0.2  c0,0-0.1,0.1-0.1,0.2c0,0.1,0,0.1-0.1,0.2c0,0.1,0,0.1,0,0.2c0,0.3,0.1,0.5,0.3,0.7C68.8,75.5,69,75.5,69.3,75.5z"/><path d="M73.2,75.5c0.3,0,0.5-0.1,0.7-0.3s0.3-0.4,0.3-0.7c0-0.3-0.1-0.5-0.3-0.7c-0.3-0.3-0.7-0.4-1.1-0.2c-0.1,0-0.2,0.1-0.3,0.2  c-0.2,0.2-0.3,0.4-0.3,0.7c0,0.3,0.1,0.5,0.3,0.7S72.9,75.5,73.2,75.5z"/><path d="M77.1,75.5c0.1,0,0.3,0,0.4-0.1c0.1,0,0.2-0.1,0.3-0.2c0.1-0.1,0.2-0.2,0.2-0.3c0-0.1,0.1-0.2,0.1-0.4  c0-0.3-0.1-0.5-0.3-0.7c-0.3-0.3-0.7-0.4-1.1-0.2c-0.1,0-0.2,0.1-0.3,0.2c-0.2,0.2-0.3,0.4-0.3,0.7c0,0.3,0.1,0.5,0.3,0.7  C76.6,75.5,76.8,75.5,77.1,75.5z"/><path d="M81,75.5c0.3,0,0.5-0.1,0.7-0.3s0.3-0.4,0.3-0.7c0-0.1,0-0.1,0-0.2c0-0.1,0-0.1-0.1-0.2c0-0.1-0.1-0.1-0.1-0.2  c0-0.1-0.1-0.1-0.1-0.2c-0.3-0.3-0.7-0.4-1.1-0.2c-0.1,0-0.2,0.1-0.3,0.2c0,0-0.1,0.1-0.1,0.2c0,0-0.1,0.1-0.1,0.2  c0,0.1,0,0.1-0.1,0.2c0,0.1,0,0.1,0,0.2c0,0.3,0.1,0.5,0.3,0.7S80.7,75.5,81,75.5z"/><path d="M91,70.2h-4.5V25.6c0-3.1-2.5-5.6-5.6-5.6H17.6c-3.1,0-5.6,2.5-5.6,5.6v44.7H7.5c-0.6,0-1,0.4-1,1v2.4c0,3,2.4,5.4,5.4,5.4  h74.7c3,0,5.4-2.4,5.4-5.4v-2.4C92,70.7,91.6,70.2,91,70.2z M14,25.6c0-2,1.6-3.6,3.6-3.6h63.3c2,0,3.6,1.6,3.6,3.6v44.7h-3.7V27.8  c0-0.6-0.4-1-1-1H18.7c-0.6,0-1,0.4-1,1v42.4H14V25.6z M78.8,70.2H19.7V28.8h59.1V70.2z M90,73.6c0,1.9-1.5,3.4-3.4,3.4H11.9  c-1.9,0-3.4-1.5-3.4-3.4v-1.4H90V73.6z"/></svg>