<svg xmlns="http://www.w3.org/2000/svg" xmlns:xlink="http://www.w3.org/1999/xlink" version="1.1" x="0px" y="0px" viewBox="0 0 100 125" style="enable-background:new 0 0 100 100;" xml:space="preserve"><path d="M26.2,30.9c-3.2,0-5.9,2.6-5.9,5.9l2,55.6c0,0.5,0.5,1,1,1h23.1c0.5,0,1-0.4,1-1l2-55.6c0-3.2-2.6-5.9-5.9-5.9h-0.5  c-1.7,0-3.1-1.4-3.1-3.1v-8.7c0.9-0.3,1.6-1.2,1.6-2.2v-5.1c0-1.3-1-2.3-2.3-2.3h-9.7c-1.3,0-2.3,1-2.3,2.3v5.1c0,1.2,1,2.2,2.2,2.3  v8.6C29.3,29.5,27.9,30.9,26.2,30.9z M46,76.3H23.7l-0.3-8.2h22.8L46,76.3z M24.2,91.4l-0.5-13.1h22.1l-0.5,13.1H24.2z M42.9,32.9  h0.5c2.1,0,3.9,1.7,3.9,3.8l-1,29.3h-23l-1-29.3c0-2.1,1.7-3.9,3.9-3.9c2.8,0,5.1-2.3,5.1-5.1v-8.6h6.5v8.6  C37.8,30.6,40.1,32.9,42.9,32.9z M29.1,16.9v-5.1c0-0.2,0.1-0.3,0.3-0.3h9.7c0.2,0,0.3,0.1,0.3,0.3v5.1c0,0.2-0.1,0.3-0.3,0.3h-0.3  h-8.5h-0.9C29.3,17.2,29.1,17.1,29.1,16.9z"/><path d="M78.5,42.9c2,0,3.9-0.6,5.4-1.8c2.2-1.7,3.5-4.4,3.5-7.3c0-5.2-4.3-9.5-9.5-9.5c-5,0-9.1,3.9-9.5,8.8H56  c-0.3,0-0.7,0.2-0.8,0.5c-0.2,0.3-0.2,0.6-0.1,1c0,0.1,4.5,9.9,2.2,19.5c-0.4,1.5-0.8,3.1-1.2,4.6c-1.8,6.5-3.6,13.2-0.4,17.3  c1.8,2.4,5.2,3.7,10,3.8v11.7h-5.4c-0.6,0-1,0.4-1,1s0.4,1,1,1h12.9c0.6,0,1-0.4,1-1s-0.4-1-1-1h-5.4V79.7c5.1-0.1,8.6-1.4,10.5-3.9  c3.1-4.1,1.2-10.5-0.6-16.8c-0.5-1.7-1-3.4-1.4-5.1c-0.9-4-0.7-8.1-0.2-11.4C76.9,42.8,77.7,42.9,78.5,42.9z M78,26.3  c4.1,0,7.5,3.4,7.5,7.5c0,2.2-1,4.4-2.7,5.7c-1.2,0.9-3.2,1.9-6.3,1.1c0.8-3.6,1.9-6.1,2-6.2c0.1-0.3,0.1-0.7-0.1-1  c-0.2-0.3-0.5-0.5-0.8-0.5h-7C70.9,29.3,74.1,26.3,78,26.3z M57.5,35.1H76c-0.6,1.6-1.6,4.6-2.1,8.2c-0.7,0.5-1.5,0.9-2.7,0.9  c-1.6,0-2.4-0.6-3.4-1.4c-1.1-0.8-2.3-1.8-4.6-1.8c-1.8,0-2.9,0.6-3.8,1.2C58.9,39,58.1,36.5,57.5,35.1z M75.7,59.7  c1.7,5.8,3.4,11.8,0.9,15c-1.6,2.1-4.8,3.1-9.8,3.1c0,0-0.1,0-0.1,0c-4.8,0-7.9-1-9.5-3.1c-2.6-3.4-0.9-9.6,0.8-15.6  c0.4-1.5,0.9-3.1,1.2-4.7c0.8-3.5,0.8-7,0.5-10.1l0.1-0.1c1-0.7,1.8-1.4,3.4-1.4c1.6,0,2.4,0.6,3.4,1.4c1.1,0.8,2.4,1.8,4.6,1.8  c1,0,1.7-0.2,2.4-0.4c-0.2,2.8-0.1,5.8,0.6,8.8C74.7,56.2,75.2,58,75.7,59.7z"/><path d="M80.3,33.8c0,0.6,0.4,1,1,1h2.1c0.6,0,1-0.4,1-1s-0.4-1-1-1h-2.1C80.8,32.8,80.3,33.2,80.3,33.8z"/><path d="M79,30.4v-2.1c0-0.6-0.4-1-1-1s-1,0.4-1,1v2.1c0,0.6,0.4,1,1,1S79,31,79,30.4z"/><path d="M81.1,38.4c0.2,0.2,0.5,0.3,0.7,0.3s0.5-0.1,0.7-0.3c0.4-0.4,0.4-1,0-1.4l-1.5-1.5c-0.4-0.4-1-0.4-1.4,0s-0.4,1,0,1.4  L81.1,38.4z"/><path d="M74.8,29.2c-0.4-0.4-1-0.4-1.4,0c-0.4,0.4-0.4,1,0,1.4l1.5,1.5c0.2,0.2,0.5,0.3,0.7,0.3s0.5-0.1,0.7-0.3  c0.4-0.4,0.4-1,0-1.4L74.8,29.2z"/><path d="M80.4,32.4c0.3,0,0.5-0.1,0.7-0.3l1.5-1.5c0.4-0.4,0.4-1,0-1.4s-1-0.4-1.4,0l-1.5,1.5c-0.4,0.4-0.4,1,0,1.4  C79.8,32.3,80.1,32.4,80.4,32.4z"/><path d="M66.5,64.1L64,61.6c-0.7-0.7-1.9-0.7-2.5,0l-2.5,2.5c-0.3,0.3-0.5,0.8-0.5,1.3s0.2,0.9,0.5,1.3l2.5,2.5c0,0,0,0,0,0  c0.3,0.3,0.8,0.5,1.3,0.5c0.5,0,0.9-0.2,1.3-0.5l2.5-2.5c0.3-0.3,0.5-0.8,0.5-1.3S66.8,64.5,66.5,64.1z M62.7,67.6l-2.2-2.2l2.2-2.2  l2.2,2.2L62.7,67.6z"/><path d="M72.9,68.1l-3.5-0.5c-0.5-0.1-0.9,0.1-1.3,0.3c-0.4,0.3-0.6,0.7-0.7,1.2l-0.5,3.5v0c-0.1,1,0.5,1.9,1.5,2l3.5,0.5  c0.1,0,0.2,0,0.3,0c0.9,0,1.6-0.6,1.8-1.5l0.5-3.5c0.1-0.5-0.1-0.9-0.3-1.3C73.8,68.4,73.3,68.1,72.9,68.1z M71.9,73.1l-3.1-0.4  l0.4-3.1l3.1,0.4L71.9,73.1z"/><path d="M66.6,61.3l3.3,1.4c0.2,0.1,0.5,0.1,0.7,0.1c0.2,0,0.5,0,0.7-0.1c0.4-0.2,0.8-0.5,1-1l1.4-3.3c0.4-0.9-0.1-2-1-2.3l-3.3-1.4  c-0.9-0.4-2,0.1-2.3,1L65.7,59c-0.2,0.4-0.2,0.9,0,1.4C65.9,60.8,66.2,61.1,66.6,61.3z M68.8,56.6l2.9,1.2l-1.2,2.9l-2.9-1.2  L68.8,56.6z"/><path d="M39,41.5c-0.2,0.1-0.3,0.1-0.5,0.2c-1.7,0.8-3.3,1.6-5,2.4c-0.1,0.1-0.2,0.1-0.3,0.1c-0.2,0.1-0.5,0-0.6-0.1  c-0.4-0.3-0.8-0.6-1.2-0.9c-0.4-0.3-0.9-0.6-1.3-0.9c-0.4-0.2-0.8-0.4-1.3-0.4c-0.2,0-0.4,0-0.5,0.2c-0.2,0.2-0.3,0.5-0.2,0.7  c0.1,0.3,0.3,0.5,0.5,0.8c0.2,0.3,0.5,0.6,0.9,0.8c0.7,0.5,1.4,1,2.1,1.5c0,0,0,0,0,0c0.2,0.1,0.3,0.4,0.3,0.6c0,0.5-0.1,1-0.1,1.6  c-0.1,1.5-0.1,3-0.2,4.5c0,0.3,0,0.5,0.1,0.7c0.1,0.4,0.4,0.6,0.7,0.7c0.1,0,0.1,0,0.2,0.1c0.3,0.1,0.5,0,0.6-0.3  c0.1-0.3,0.1-0.5,0.2-0.8c0.3-1.1,0.6-2.1,0.9-3.2c0.1-0.4,0.3-0.7,0.4-1c0.1-0.1,0.1-0.3,0.2-0.4c0,0,0,0,0.1,0c1,0.7,2,1.3,3,2  c0,0,0.1,0.1,0.1,0.1c-0.1,0.3-0.1,0.7-0.2,1c0,0.3,0,0.5,0.1,0.7c0.1,0.2,0.3,0.4,0.6,0.5c0.1,0,0.3,0,0.4-0.1  c0.1-0.1,0.1-0.1,0.2-0.2c0.7-1.1,1.4-2.1,2.1-3.2c0.1-0.1,0.1-0.2,0.2-0.3c0.1-0.2,0.1-0.3-0.1-0.5c-0.1-0.1-0.3-0.2-0.4-0.3  c-0.2-0.1-0.4-0.1-0.6,0c-0.3,0.2-0.6,0.4-0.9,0.6c-0.1,0-0.1,0.1-0.2,0.1c0,0-0.1,0-0.1,0c-0.3-0.3-0.6-0.5-1-0.8  c-0.6-0.5-1.2-1-1.8-1.5c0,0,0,0-0.1-0.1c0.1-0.2,0.2-0.3,0.3-0.5c0.2-0.4,0.6-0.6,0.9-0.9c0.9-0.7,1.8-1.5,2.7-2.2  c0.1-0.1,0.2-0.2,0.3-0.3c0.2-0.2,0.2-0.3,0-0.5c-0.2-0.3-0.4-0.5-0.7-0.7C39.4,41.4,39.2,41.4,39,41.5z"/></svg>